# File created by Blade
# Date/Time:  Wed Jan 21 16:33:39 2015
#---------------------------------------------------------
:version 1.10
:name HOM
:units
  mass 1.0
  length 1.000000
  angle deg
:documentation
     Acclaim Skeleton File
:root
   axis xyz
   order TX TY TZ RX RY RZ
   position 0.000000 0.000000 0.000000
   orientation 0 0 0
:bonedata
   begin
      id 1
      name Spine_dum
      direction 0.000000 1.000000 0.000000
      length 7.067664
      axis 0.0 0.0 0.0 xyz
   end
   begin
      id 2
      name LeftUpLeg_dum
      direction 1.000000 0.000000 0.000000
      length 4.013002
      axis 0.0 0.0 0.0 xyz
   end
   begin
      id 3
      name RightUpLeg_dum
      direction -1.000000 0.000000 0.000000
      length 4.013002
      axis 0.0 0.0 0.0 xyz
   end
   begin
      id 4
      name Spine
      direction 0.000000 1.000000 0.000000
      length 0.000000
      axis 0.0 0.0 0.0 xyz
      dof rx ry rz
   end
   begin
      id 5
      name Spine_dum1
      direction 0.000000 1.000000 0.000000
      length 15.039886
      axis 0.0 0.0 0.0 xyz
   end
   begin
      id 6
      name Spine_dum2
      direction 0.000000 1.000000 0.000000
      length 10.530368
      axis 0.0 0.0 0.0 xyz
   end
   begin
      id 7
      name Spine_dum3
      direction 0.000000 1.000000 0.000000
      length 10.530368
      axis 0.0 0.0 0.0 xyz
   end
   begin
      id 8
      name Head
      direction 0.000000 1.000000 0.000000
      length 4.527550
      axis 0.0 0.0 0.0 xyz
      dof rx ry rz
   end
   begin
      id 9
      name LeftShoulder
      direction 1.000000 0.000000 0.000000
      length 7.028855
      axis 0.0 0.0 -90.0 xyz
      dof rx ry rz
   end
   begin
      id 10
      name LeftArm
      direction 1.000000 0.000000 0.000000
      length 10.797705
      axis 0.0 0.0 -90.0 xyz
      dof rx ry rz
   end
   begin
      id 11
      name LeftForeArm
      direction 1.000000 0.000000 0.000000
      length 7.907442
      axis 0.0 0.0 -90.0 xyz
      dof ry rz rx
   end
   begin
      id 12
      name LeftHand
      direction 0.000000 0.000000 0.000000
      length 0.000000
      axis 0.0 0.0 -90.0 xyz
      dof rx ry rz
   end
   begin
      id 13
      name LeftHand_dum1
      direction 0.000000 0.000000 0.000000
      length 0.000000
      axis 0.0 0.0 -90.0 xyz
   end
   begin
      id 14
      name LeftHand_dum2
      direction 1.000000 0.000000 0.000000
      length 3.937000
      axis 0.0 0.0 -90.0 xyz
   end
   begin
      id 15
      name LeftHandThumb1
      direction 0.000000 0.000000 1.000000
      length 3.937000
      axis 0.0 0.0 -90.0 xyz
      dof rx rz ry
   end
   begin
      id 16
      name RightShoulder
      direction -1.000000 0.000000 0.000000
      length 7.028855
      axis 0.0 0.0 90.0 xyz
      dof rx ry rz
   end
   begin
      id 17
      name RightArm
      direction -1.000000 0.000000 0.000000
      length 10.797705
      axis 0.0 0.0 90.0 xyz
      dof rx ry rz
   end
   begin
      id 18
      name RightForeArm
      direction -1.000000 0.000000 0.000000
      length 7.907442
      axis 0.0 0.0 90.0 xyz
      dof ry rz rx
   end
   begin
      id 19
      name RightHand
      direction 0.000000 0.000000 0.000000
      length 0.000000
      axis 0.0 0.0 90.0 xyz
      dof rx ry rz
   end
   begin
      id 20
      name RightHand_dum1
      direction 0.000000 0.000000 0.000000
      length 0.000000
      axis 0.0 0.0 90.0 xyz
   end
   begin
      id 21
      name RightHand_dum2
      direction -1.000000 0.000000 0.000000
      length 3.937000
      axis 0.0 0.0 90.0 xyz
   end
   begin
      id 22
      name RightHandThumb1
      direction 0.000000 0.000000 1.000000
      length 3.937000
      axis 0.0 0.0 90.0 xyz
      dof rx rz ry
   end
   begin
      id 23
      name LeftUpLeg
      direction 0.000000 -1.000000 0.000000
      length 16.899758
      axis 0.0 0.0 0.0 xyz
      dof rx ry rz
   end
   begin
      id 24
      name LeftLeg
      direction 0.000000 -1.000000 0.000000
      length 17.389183
      axis 0.0 0.0 0.0 xyz
      dof rx ry rz
   end
   begin
      id 25
      name LeftFoot
      direction 0.000000 -0.258819 0.965926
      length 4.924528
      axis 15.0 0.0 0.0 xyz
      dof rx ry rz
   end
   begin
      id 26
      name LeftToeBase
      direction 0.000000 0.000000 1.000000
      length 2.952750
      axis 0.0 0.0 0.0 xyz
      dof rx ry rz
   end
   begin
      id 27
      name RightUpLeg
      direction 0.000000 -1.000000 0.000000
      length 16.899758
      axis 0.0 0.0 0.0 xyz
      dof rx ry rz
   end
   begin
      id 28
      name RightLeg
      direction 0.000000 -1.000000 0.000000
      length 17.389183
      axis 0.0 0.0 0.0 xyz
      dof rx ry rz
   end
   begin
      id 29
      name RightFoot
      direction 0.000000 -0.258819 0.965926
      length 4.924528
      axis 15.0 0.0 0.0 xyz
      dof rx ry rz
   end
   begin
      id 30
      name RightToeBase
      direction 0.000000 0.000000 1.000000
      length 2.952750
      axis 0.0 0.0 0.0 xyz
      dof rx ry rz
   end
:hierarchy
   begin
      root Spine_dum LeftUpLeg_dum RightUpLeg_dum
      Spine_dum Spine
      LeftUpLeg_dum LeftUpLeg
      RightUpLeg_dum RightUpLeg
      Spine Spine_dum1 Spine_dum2 Spine_dum3
      Spine_dum1 Head
      Spine_dum2 LeftShoulder
      Spine_dum3 RightShoulder
      LeftShoulder LeftArm
      LeftArm LeftForeArm
      LeftForeArm LeftHand
      LeftHand LeftHand_dum1 LeftHand_dum2
      LeftHand_dum1 LeftHandThumb1
      RightShoulder RightArm
      RightArm RightForeArm
      RightForeArm RightHand
      RightHand RightHand_dum1 RightHand_dum2
      RightHand_dum1 RightHandThumb1
      LeftUpLeg LeftLeg
      LeftLeg LeftFoot
      LeftFoot LeftToeBase
      RightUpLeg RightLeg
      RightLeg RightFoot
      RightFoot RightToeBase
   end

# File created by Blade
# Date/Time:  Wed Jan 21 16:33:30 2015
# Frame Rate: 120.000 fps
#------------------------------------------------------
:FULLY-SPECIFIED
:DEGREES
105
root 19.989903 35.289500 -27.947042 -272.386324 89.406234 -267.918139
Spine 13.200069 1.020170 -3.641507
Head 29.917946 -3.741091 3.305754
LeftShoulder -11.054445 -16.944195 -0.504518
LeftArm -14.946411 5.277304 -77.691084
LeftForeArm 2.760073 -0.000000 2.708554
LeftHand -3.199466 -0.000000 -5.231831
LeftHandThumb1 -26.253704 0.000000 33.147579
RightShoulder -13.189695 -17.538799 10.648794
RightArm 11.985267 8.047683 77.542910
RightForeArm -25.355229 -0.000000 14.051907
RightHand -3.253515 0.000000 7.041002
RightHandThumb1 -24.326973 -0.000000 -32.862282
LeftUpLeg 10.910489 8.333735 -4.203526
LeftLeg 2.643612 -0.000000 -0.000000
LeftFoot -26.799685 27.236914 -11.959545
LeftToeBase 23.045297 -0.000000 -0.000000
RightUpLeg -19.656365 1.392660 0.603266
RightLeg 33.008042 -0.000000 -0.000000
RightFoot -24.313362 -30.828305 17.342461
RightToeBase 5.139512 -0.000000 -0.000000
106
root 20.067032 35.279653 -27.950053 -272.197612 89.435799 -267.742273
Spine 13.313962 1.016535 -3.649769
Head 29.992061 -3.802621 3.388679
LeftShoulder -10.959235 -16.801613 -0.424027
LeftArm -14.825474 5.968728 -78.189805
LeftForeArm 3.081376 -0.000000 2.893485
LeftHand -3.194796 -0.000000 -4.953855
LeftHandThumb1 -26.253704 0.000000 33.147579
RightShoulder -13.204600 -17.710230 10.719383
RightArm 11.885141 7.680432 77.567386
RightForeArm -25.440859 -0.000000 14.190381
RightHand -3.139258 -0.000000 6.601876
RightHandThumb1 -24.326973 -0.000000 -32.862282
LeftUpLeg 11.048020 8.402902 -4.154619
LeftLeg 2.603294 -0.000000 -0.000000
LeftFoot -26.903900 27.189042 -11.974449
LeftToeBase 23.073271 -0.000000 -0.000000
RightUpLeg -19.503863 1.250910 0.728117
RightLeg 31.251371 -0.000000 -0.000000
RightFoot -23.862329 -30.562595 17.211231
RightToeBase 5.874699 -0.000000 -0.000000
107
root 20.147854 35.268573 -27.950484 -269.765549 89.454640 -265.329105
Spine 13.422751 0.961844 -3.662821
Head 30.055853 -3.850433 3.401976
LeftShoulder -10.959132 -16.609131 -0.296465
LeftArm -14.625933 6.825149 -78.719223
LeftForeArm 3.320089 -0.000000 3.110398
LeftHand -3.041982 -0.000000 -4.712797
LeftHandThumb1 -26.253704 0.000000 33.147579
RightShoulder -13.229644 -17.837697 10.751806
RightArm 11.851091 7.530201 77.642117
RightForeArm -25.813180 -0.000000 14.195418
RightHand -3.103528 -0.000000 6.583370
RightHandThumb1 -24.326973 -0.000000 -32.862282
LeftUpLeg 11.189225 8.397655 -4.120515
LeftLeg 2.559414 -0.000000 -0.000000
LeftFoot -27.016688 27.180834 -11.995566
LeftToeBase 23.045737 -0.000000 -0.000000
RightUpLeg -19.334955 1.146032 0.820830
RightLeg 29.481092 -0.000000 -0.000000
RightFoot -23.264951 -30.314805 16.959585
RightToeBase 5.911519 -0.000000 -0.000000
108
root 20.235367 35.256190 -27.949705 -268.911231 89.473749 -264.456616
Spine 13.560937 0.948518 -3.663118
Head 30.118190 -3.898755 3.437434
LeftShoulder -10.905368 -16.430067 -0.189147
LeftArm -14.441359 7.740022 -79.228216
LeftForeArm 3.500014 -0.000000 3.318793
LeftHand -2.994047 -0.000000 -4.298749
LeftHandThumb1 -26.253704 0.000000 33.147579
RightShoulder -13.270922 -17.974249 10.821060
RightArm 11.793935 7.232977 77.602811
RightForeArm -25.755369 -0.000000 14.324682
RightHand -3.202567 -0.000000 6.384463
RightHandThumb1 -24.326973 -0.000000 -32.862282
LeftUpLeg 11.386837 8.389015 -4.084101
LeftLeg 2.497415 -0.000000 -0.000000
LeftFoot -27.177971 27.192386 -12.088457
LeftToeBase 23.044499 -0.000000 -0.000000
RightUpLeg -19.106498 1.149963 0.884047
RightLeg 27.733080 -0.000000 -0.000000
RightFoot -22.652114 -30.156799 16.495829
RightToeBase 6.220719 -0.000000 -0.000000
109
root 20.320397 35.243135 -27.948552 -264.910369 89.498334 -260.484502
Spine 13.645837 0.939620 -3.643152
Head 30.217677 -4.002115 3.475212
LeftShoulder -10.778463 -16.391022 -0.127572
LeftArm -14.388450 8.540749 -79.648702
LeftForeArm 3.906522 -0.000000 3.500024
LeftHand -2.917656 -0.000000 -4.180397
LeftHandThumb1 -26.253704 0.000000 33.147579
RightShoulder -13.325963 -18.067776 10.876342
RightArm 11.727065 7.049435 77.582717
RightForeArm -25.830492 0.000000 14.408588
RightHand -3.126245 -0.000000 6.337650
RightHandThumb1 -24.326973 -0.000000 -32.862282
LeftUpLeg 11.540808 8.353775 -4.045689
LeftLeg 2.427724 -0.000000 -0.000000
LeftFoot -27.319029 27.216832 -12.137348
LeftToeBase 23.028449 -0.000000 -0.000000
RightUpLeg -18.916569 1.157838 0.924613
RightLeg 25.973842 -0.000000 -0.000000
RightFoot -21.938244 -29.945605 16.377108
RightToeBase 5.726358 -0.000000 -0.000000
110
root 20.406894 35.228083 -27.942810 -261.860920 89.502954 -257.489532
Spine 13.693221 0.934105 -3.650904
Head 30.321512 -4.057120 3.507487
LeftShoulder -10.659706 -16.295091 -0.054945
LeftArm -14.352941 9.665352 -80.092841
LeftForeArm 3.762287 -0.000000 3.820157
LeftHand -2.857297 -0.000000 -3.972313
LeftHandThumb1 -26.253704 0.000000 33.147579
RightShoulder -13.362634 -18.266659 10.968749
RightArm 11.756387 6.871148 77.549564
RightForeArm -25.903953 -0.000000 14.509346
RightHand -3.105433 -0.000000 6.308584
RightHandThumb1 -24.326973 -0.000000 -32.862282
LeftUpLeg 11.663286 8.256169 -4.033501
LeftLeg 2.376663 -0.000000 -0.000000
LeftFoot -27.446589 27.268340 -12.135353
LeftToeBase 23.023006 -0.000000 -0.000000
RightUpLeg -18.728020 1.282417 0.932466
RightLeg 24.197907 -0.000000 -0.000000
RightFoot -21.205564 -29.943432 16.017909
RightToeBase 6.019089 -0.000000 -0.000000
